<svg width="765" height="86" viewBox="0 0 765 86" fill="none" xmlns="http://www.w3.org/2000/svg">
<path d="M401.824 41.7713H610.933C666.425 40.2892 692.857 38.9232 707.639 29C706.492 32.0672 701.93 37.2092 697.213 38.4464C717.704 38.5237 743.646 39.3614 765 33.575C747.718 42.2868 704.133 46.2174 691.491 47.1452C698.347 49.7227 705.28 53.6146 708.773 57.6097C683.346 47.0679 635.56 48.1376 429.429 47.0035H401.811L406 44.3874L401.811 41.7713H401.824Z" fill="#9C7E30"/>
<path d="M363.163 41.7713H154.067C98.5746 40.2892 72.1428 38.9232 57.3612 29C58.5081 32.0672 63.0702 37.2092 67.7869 38.4464C47.2962 38.5237 21.3542 39.3614 0 33.575C17.2818 42.2868 60.8665 46.2174 73.5089 47.1452C66.6529 49.7227 59.7195 53.6146 56.2271 57.6097C81.6536 47.0679 129.44 48.1376 335.571 47.0035H363.188L359 44.3874L363.188 41.7713H363.163Z" fill="#9C7E30"/>
<g filter="url(#filter0_d_1_36)">
<rect x="275" y="9" width="216" height="68" rx="10" fill="#E6E6E6"/>
</g>
<path d="M301.034 24.476C304.668 24.2253 307.88 24.1 310.669 24.1C318.408 24.1 322.278 26.685 322.278 31.855C322.278 34.0483 321.745 36.0067 320.68 37.73C319.614 39.4533 317.781 40.597 315.181 41.161L324.581 57H320.21L310.998 41.443H304.935V57H301.034V24.476ZM310.669 24.57C308.851 24.57 306.94 24.6797 304.935 24.899V40.973H311.891C316.309 40.785 318.518 37.777 318.518 31.949C318.518 29.5677 317.86 27.7503 316.544 26.497C315.228 25.2123 313.269 24.57 310.669 24.57ZM331.047 45.532C331.047 49.4173 331.721 52.2687 333.068 54.086C334.447 55.9033 336.249 56.812 338.473 56.812C341.607 56.812 344.395 56.342 346.839 55.402L346.98 55.731C344.474 56.7023 341.638 57.188 338.473 57.188C335.34 57.188 332.786 56.248 330.812 54.368C328.838 52.488 327.851 49.5897 327.851 45.673C327.851 41.7563 328.885 38.717 330.953 36.555C333.021 34.393 335.653 33.312 338.849 33.312C341.419 33.312 343.581 34.0797 345.335 35.615C347.09 37.1503 347.967 39.422 347.967 42.43C347.967 42.5867 347.967 42.7433 347.967 42.9H331.188C331.094 43.746 331.047 44.6233 331.047 45.532ZM344.771 42.524C344.74 39.516 344.16 37.2913 343.032 35.85C341.904 34.4087 340.447 33.688 338.661 33.688C336.875 33.688 335.277 34.4713 333.867 36.038C332.489 37.6047 331.611 39.7667 331.235 42.524H344.771ZM365.029 35.145C364.528 34.7377 363.713 34.393 362.585 34.111C361.489 33.829 360.658 33.688 360.094 33.688C359.53 33.688 359.201 33.688 359.107 33.688C357.415 33.7193 356.193 34.158 355.441 35.004C354.689 35.8187 354.313 36.743 354.313 37.777C354.313 38.811 354.642 39.6883 355.3 40.409C355.958 41.0983 356.773 41.6467 357.744 42.054C358.747 42.43 359.812 42.8687 360.94 43.37C362.1 43.8713 363.165 44.3883 364.136 44.921C365.139 45.4223 365.969 46.1743 366.627 47.177C367.285 48.1483 367.614 49.3703 367.614 50.843C367.614 52.3157 367.097 53.569 366.063 54.603C365.029 55.637 363.87 56.3263 362.585 56.671C361.332 57.0157 359.969 57.188 358.496 57.188C355.3 57.188 352.903 56.483 351.305 55.073L351.587 54.791C352.214 55.3863 353.138 55.872 354.36 56.248C355.614 56.624 356.82 56.812 357.979 56.812C359.828 56.812 361.348 56.3107 362.538 55.308C363.76 54.274 364.371 53.005 364.371 51.501C364.371 49.9657 363.917 48.7437 363.008 47.835C362.1 46.895 360.987 46.1743 359.671 45.673C358.387 45.1403 357.086 44.6233 355.77 44.122C354.454 43.5893 353.342 42.8687 352.433 41.96C351.525 41.02 351.07 39.939 351.07 38.717C351.07 37.495 351.352 36.508 351.916 35.756C352.48 34.9727 353.232 34.4243 354.172 34.111C355.77 33.5783 357.368 33.312 358.966 33.312C361.661 33.312 363.76 33.8133 365.264 34.816L365.029 35.145ZM374.329 45.532C374.329 49.4173 375.003 52.2687 376.35 54.086C377.729 55.9033 379.531 56.812 381.755 56.812C384.889 56.812 387.677 56.342 390.121 55.402L390.262 55.731C387.756 56.7023 384.92 57.188 381.755 57.188C378.622 57.188 376.068 56.248 374.094 54.368C372.12 52.488 371.133 49.5897 371.133 45.673C371.133 41.7563 372.167 38.717 374.235 36.555C376.303 34.393 378.935 33.312 382.131 33.312C384.701 33.312 386.863 34.0797 388.617 35.615C390.372 37.1503 391.249 39.422 391.249 42.43C391.249 42.5867 391.249 42.7433 391.249 42.9H374.47C374.376 43.746 374.329 44.6233 374.329 45.532ZM388.053 42.524C388.022 39.516 387.442 37.2913 386.314 35.85C385.186 34.4087 383.729 33.688 381.943 33.688C380.157 33.688 378.559 34.4713 377.149 36.038C375.771 37.6047 374.893 39.7667 374.517 42.524H388.053ZM402.142 35.521V34.534C400.732 35.098 399.447 36.2417 398.288 37.965C397.128 39.657 396.517 41.255 396.455 42.759V57H393.165V33.5H396.455V40.973C396.956 39.1557 397.912 37.448 399.322 35.85C400.732 34.2207 402.33 33.3747 404.116 33.312H404.304C404.93 33.312 405.447 33.5313 405.855 33.97C406.293 34.3773 406.513 34.8943 406.513 35.521C406.513 36.1477 406.293 36.6647 405.855 37.072C405.447 37.4793 404.93 37.683 404.304 37.683C403.677 37.683 403.16 37.4793 402.753 37.072C402.345 36.6647 402.142 36.1477 402.142 35.521ZM427.398 33.782L427.68 33.5C427.806 33.5627 427.962 33.7507 428.15 34.064C428.37 34.3773 428.495 34.6593 428.526 34.91C428.589 35.1607 428.62 35.3957 428.62 35.615C428.62 36.461 428.432 37.3227 428.056 38.2L419.032 57H418.562L409.82 33.5H413.11L420.301 52.958L427.586 38.2C427.962 37.542 428.15 36.7587 428.15 35.85C428.15 34.9413 427.9 34.252 427.398 33.782ZM434.41 45.532C434.41 49.4173 435.084 52.2687 436.431 54.086C437.81 55.9033 439.612 56.812 441.836 56.812C444.97 56.812 447.758 56.342 450.202 55.402L450.343 55.731C447.837 56.7023 445.001 57.188 441.836 57.188C438.703 57.188 436.149 56.248 434.175 54.368C432.201 52.488 431.214 49.5897 431.214 45.673C431.214 41.7563 432.248 38.717 434.316 36.555C436.384 34.393 439.016 33.312 442.212 33.312C444.782 33.312 446.944 34.0797 448.698 35.615C450.453 37.1503 451.33 39.422 451.33 42.43C451.33 42.5867 451.33 42.7433 451.33 42.9H434.551C434.457 43.746 434.41 44.6233 434.41 45.532ZM448.134 42.524C448.103 39.516 447.523 37.2913 446.395 35.85C445.267 34.4087 443.81 33.688 442.024 33.688C440.238 33.688 438.64 34.4713 437.23 36.038C435.852 37.6047 434.974 39.7667 434.598 42.524H448.134ZM462.223 35.521V34.534C460.813 35.098 459.528 36.2417 458.369 37.965C457.209 39.657 456.598 41.255 456.536 42.759V57H453.246V33.5H456.536V40.973C457.037 39.1557 457.993 37.448 459.403 35.85C460.813 34.2207 462.411 33.3747 464.197 33.312H464.385C465.011 33.312 465.528 33.5313 465.936 33.97C466.374 34.3773 466.594 34.8943 466.594 35.521C466.594 36.1477 466.374 36.6647 465.936 37.072C465.528 37.4793 465.011 37.683 464.385 37.683C463.758 37.683 463.241 37.4793 462.834 37.072C462.426 36.6647 462.223 36.1477 462.223 35.521Z" fill="#9C7E30"/>
<defs>
<filter id="filter0_d_1_36" x="266" y="0" width="234" height="86" filterUnits="userSpaceOnUse" color-interpolation-filters="sRGB">
<feFlood flood-opacity="0" result="BackgroundImageFix"/>
<feColorMatrix in="SourceAlpha" type="matrix" values="0 0 0 0 0 0 0 0 0 0 0 0 0 0 0 0 0 0 127 0" result="hardAlpha"/>
<feMorphology radius="5" operator="dilate" in="SourceAlpha" result="effect1_dropShadow_1_36"/>
<feOffset/>
<feGaussianBlur stdDeviation="2"/>
<feComposite in2="hardAlpha" operator="out"/>
<feColorMatrix type="matrix" values="0 0 0 0 0 0 0 0 0 0 0 0 0 0 0 0 0 0 0.25 0"/>
<feBlend mode="normal" in2="BackgroundImageFix" result="effect1_dropShadow_1_36"/>
<feBlend mode="normal" in="SourceGraphic" in2="effect1_dropShadow_1_36" result="shape"/>
</filter>
</defs>
</svg>
