<svg width="765" height="101" viewBox="0 0 765 101" fill="none" xmlns="http://www.w3.org/2000/svg">
<path d="M401.824 42.9275H610.933C666.425 41.4455 692.857 40.0794 707.639 30.1562C706.492 33.2234 701.93 38.3654 697.213 39.6026C717.704 39.6799 743.646 40.5176 765 34.7312C747.718 43.443 704.133 47.3736 691.491 48.3015C698.347 50.8789 705.28 54.7709 708.773 58.7659C683.346 48.2242 635.56 49.2938 429.429 48.1597H401.811L406 45.5436L401.811 42.9275H401.824Z" fill="#9C7E30"/>
<path d="M363.163 42.9275H154.067C98.5746 41.4455 72.1428 40.0794 57.3611 30.1562C58.5081 33.2234 63.0702 38.3654 67.7869 39.6026C47.2962 39.6799 21.3542 40.5176 0 34.7312C17.2818 43.443 60.8665 47.3736 73.5089 48.3015C66.6529 50.8789 59.7195 54.7709 56.2271 58.7659C81.6536 48.2242 129.44 49.2938 335.571 48.1597H363.188L359 45.5436L363.188 42.9275H363.163Z" fill="#9C7E30"/>
<path d="M372.661 61.0727C377.016 63.2635 380.328 66.524 382.519 70.9314C384.62 66.756 387.739 63.3409 392.378 61.0727C385.664 67.787 387.275 70.1711 393.783 76.6663C385.019 76.8854 383.563 91.4995 382.519 100.753C381.475 91.4995 380.019 76.8725 371.256 76.8725C377.764 70.3644 379.22 67.6194 372.661 61.0598V61.0727Z" fill="#9C7E30"/>
<path d="M372.661 55.3249C377.016 57.5157 380.328 60.7762 382.519 65.1837C384.62 61.0082 387.739 57.5931 392.378 55.3249C385.664 62.0392 387.275 64.4233 393.783 70.9185C385.019 71.1376 383.563 85.7517 382.519 95.0047C381.475 85.7517 380.019 71.1247 371.256 71.1247C377.764 64.6166 379.22 61.8716 372.661 55.312V55.3249Z" fill="#9C7E30"/>
<path d="M372.635 29.834C381.205 19.4855 381.553 8.82776 382.519 0C383.576 8.77622 384.207 19.9752 392.352 29.8469C388.048 27.6431 384.671 23.3646 382.506 18.8927C380.367 23.2615 377.081 27.6303 372.635 29.8211V29.834Z" fill="#9C7E30"/>
<path d="M372.635 35.5818C381.205 25.2333 381.553 14.5756 382.519 5.7478C383.576 14.524 384.207 25.723 392.352 35.5947C388.048 33.3909 384.671 29.1124 382.506 24.6405C380.367 29.0093 377.081 33.3781 372.635 35.5689V35.5818Z" fill="#9C7E30"/>
<path d="M382.12 45.4662C386.476 47.657 389.788 50.9175 391.978 55.3249C394.079 51.1494 397.198 47.7343 401.837 45.4662C397.52 43.2624 394.156 40.0664 391.978 35.6074C389.852 39.9762 386.566 43.2753 382.12 45.4662Z" fill="#9C7E30"/>
<path d="M363.163 45.4662C367.518 47.657 370.831 50.9175 373.021 55.3249C375.122 51.1494 378.241 47.7343 382.88 45.4662C378.563 43.2624 375.199 40.0664 373.021 35.6074C370.895 39.9762 367.609 43.2753 363.163 45.4662Z" fill="#9C7E30"/>
<path d="M372.66 45.4662C377.016 47.657 380.328 50.9175 382.519 55.3249C384.62 51.1494 387.739 47.7343 392.378 45.4662C388.061 43.2624 384.697 40.0664 382.519 35.6074C380.393 39.9762 377.107 43.2753 372.66 45.4662Z" fill="#9C7E30"/>
</svg>
